<svg xmlns="http://www.w3.org/2000/svg" width="319.451" height="135.238" viewBox="0 0 319.451 135.238">
  <g id="Grupo_1832" data-name="Grupo 1832" transform="translate(-177.827 -142.361)">
    <path id="Trazado_1" data-name="Trazado 1" d="M402.8,206.321c.01-.01.018-.02.026-.03a16.319,16.319,0,0,0,4.1-10.9,16.464,16.464,0,0,0-32.927.076,16.151,16.151,0,0,0,.244,2.8c0,.019.006.039.011.058.237,1.005.308,1.617,1.741,1.724l.061.005a72.1,72.1,0,0,1,24.4,6.681.382.382,0,0,1,.036.016A1.585,1.585,0,0,0,402.8,206.321Z" transform="translate(-52.554 -9.817)" fill="#e61736"/>
    <path id="Trazado_2" data-name="Trazado 2" d="M368.334,239.109c10.824.01,17.771,3.677,25.126,7.559,2.151,1.136,2.771,1.45,5.076,2.535a6.311,6.311,0,0,0,3.893.512,4.488,4.488,0,0,0,1.854-.957c1.433-1.236,1.469-3.3-.5-4.143-2.92-1.256-4.629-2.342-7.268-3.735-7.734-4.082-15.731-8.3-28.175-8.316h-.033a31.18,31.18,0,0,0-14.62,3.265,2.606,2.606,0,0,0-1.043,3.721,4.128,4.128,0,0,0,1.581,1.59,3.1,3.1,0,0,0,3.027.269,27.831,27.831,0,0,1,11.056-2.3Z" transform="translate(-46.726 -24.165)" fill="#0b4495"/>
    <path id="Trazado_3" data-name="Trazado 3" d="M389.392,258.33a2.132,2.132,0,0,0,.938-4.046,42.2,42.2,0,0,0-13.6-4.094,18.6,18.6,0,0,0-4.875.108,2.136,2.136,0,0,0-.613,4.058,43.241,43.241,0,0,0,18.151,3.974Z" transform="translate(-51.481 -28.856)" fill="#0b4495"/>
    <path id="Trazado_4" data-name="Trazado 4" d="M425.057,217.073l10.982,4.642a2.5,2.5,0,0,0,3.224-1.253q.251-.556.488-1.121a2.481,2.481,0,0,0-1.331-3.234L427.5,211.493a2.5,2.5,0,0,0-3.272,1.27q-.215.505-.455,1A2.454,2.454,0,0,0,425.057,217.073Z" transform="translate(-65.824 -18.466)" fill="#e61736"/>
    <path id="Trazado_5" data-name="Trazado 5" d="M395.292,163.37q.359,0,.715.015a2.468,2.468,0,0,0,2.559-2.475V144.863a2.49,2.49,0,0,0-2.425-2.492c-.283-.007-.565-.01-.849-.01s-.565,0-.846.01a2.49,2.49,0,0,0-2.425,2.492V160.91a2.469,2.469,0,0,0,2.559,2.475C394.815,163.375,395.053,163.37,395.292,163.37Z" transform="translate(-57.382)" fill="#e61736"/>
    <path id="Trazado_6" data-name="Trazado 6" d="M383.31,164.249l-4.5-10.762a2.5,2.5,0,0,0-3.218-1.351q-.78.313-1.543.655a2.508,2.508,0,0,0-1.273,3.229l4.529,10.834a2.41,2.41,0,0,0,3.324,1.223q.611-.288,1.242-.539A2.506,2.506,0,0,0,383.31,164.249Z" transform="translate(-52.176 -2.572)" fill="#0b4495"/>
    <path id="Trazado_7" data-name="Trazado 7" d="M411.7,166.7l4.432-10.714a2.508,2.508,0,0,0-1.281-3.222q-.765-.342-1.545-.653a2.5,2.5,0,0,0-3.217,1.362l-4.455,10.769a2.506,2.506,0,0,0,1.444,3.281q.636.253,1.251.542A2.523,2.523,0,0,0,411.7,166.7Z" transform="translate(-60.98 -2.566)" fill="#e61736"/>
    <path id="Trazado_8" data-name="Trazado 8" d="M369.462,170.2l-11.4-11.4a2.506,2.506,0,0,0-3.481-.037q-.6.581-1.184,1.185a2.5,2.5,0,0,0,.037,3.48l11.43,11.429a2.448,2.448,0,0,0,3.579-.119q.449-.484.927-.941A2.49,2.49,0,0,0,369.462,170.2Z" transform="translate(-46.852 -4.211)" fill="#0b4495"/>
    <path id="Trazado_9" data-name="Trazado 9" d="M361.415,183.033l-10.865-4.5a2.5,2.5,0,0,0-3.228,1.292q-.337.765-.644,1.548a2.505,2.505,0,0,0,1.365,3.205l10.889,4.511a2.461,2.461,0,0,0,3.281-1.493q.227-.617.491-1.216A2.48,2.48,0,0,0,361.415,183.033Z" transform="translate(-45.189 -9.64)" fill="#0b4495"/>
    <path id="Trazado_10" data-name="Trazado 10" d="M426.913,200.392q0,.49-.024.975a2.463,2.463,0,0,0,2.477,2.559h16.322a2.491,2.491,0,0,0,2.492-2.425q.01-.419.01-.843t-.011-.852a2.49,2.49,0,0,0-2.491-2.425H429.362a2.458,2.458,0,0,0-2.455,2.532Q426.913,200.152,426.913,200.392Z" transform="translate(-66.722 -14.74)" fill="#e61736"/>
    <path id="Trazado_11" data-name="Trazado 11" d="M358.268,200.392c0-.16,0-.32.007-.48a2.458,2.458,0,0,0-2.456-2.533H339.5A2.49,2.49,0,0,0,337,199.8q-.011.425-.011.854t.01.842a2.491,2.491,0,0,0,2.492,2.425h16.323a2.462,2.462,0,0,0,2.477-2.567Q358.269,200.876,358.268,200.392Z" transform="translate(-42.64 -14.739)" fill="#0b4495"/>
    <path id="Trazado_12" data-name="Trazado 12" d="M427.646,189.222l11.58-4.7a2.134,2.134,0,0,0,1.188-2.674q-.451-1.179-.967-2.325a2.135,2.135,0,0,0-2.729-1.045l-11.558,4.691a2.106,2.106,0,0,0-1.1,2.863q.427.93.769,1.9A2.1,2.1,0,0,0,427.646,189.222Z" transform="translate(-65.911 -9.633)" fill="#e61736"/>
    <path id="Trazado_13" data-name="Trazado 13" d="M421.717,174.862l11.43-11.43a2.5,2.5,0,0,0,.038-3.48q-.581-.6-1.185-1.185a2.5,2.5,0,0,0-3.481.038l-11.4,11.4a2.489,2.489,0,0,0,.091,3.6q.478.458.927.942A2.447,2.447,0,0,0,421.717,174.862Z" transform="translate(-63.912 -4.211)" fill="#e61736"/>
    <path id="Trazado_14" data-name="Trazado 14" d="M366.023,221.368c11.838.512,19.642,4.259,27.9,8.23,5.2,2.5,8.639,4.4,15.033,6.169,1.42.393,3.527.343,4.584-.548a3.889,3.889,0,0,0,1.078-1.608,2.559,2.559,0,0,0-1.83-3.575c-6.3-1.624-10.624-3.742-16.03-6.339-8.492-4.081-17.274-8.3-30.455-8.869a41.776,41.776,0,0,0-22.769,5.114,2.778,2.778,0,0,0-1.182,3.546q.254.55.523,1.094a2.7,2.7,0,0,0,3.677,1.171A35.555,35.555,0,0,1,366.023,221.368Z" transform="translate(-44.011 -19.4)" fill="#0b4495"/>
    <path id="Trazado_15" data-name="Trazado 15" d="M177.827,293.449a2.351,2.351,0,0,1,2.37-2.371h6.035c6.773,0,11.454,4.65,11.454,10.715v.06c0,6.065-4.68,10.777-11.454,10.777H180.2a2.351,2.351,0,0,1-2.37-2.371Zm8.4,14.9a6.141,6.141,0,0,0,6.5-6.434v-.062a6.189,6.189,0,0,0-6.5-6.5h-3.664V308.35Z" transform="translate(0 -39.841)" fill="#0b4495"/>
    <path id="Trazado_16" data-name="Trazado 16" d="M210.711,310.259V293.449a2.352,2.352,0,0,1,2.371-2.371h11.946a2.128,2.128,0,0,1,2.125,2.125,2.1,2.1,0,0,1-2.125,2.094h-9.606v4.372h8.221a2.128,2.128,0,0,1,2.125,2.125,2.1,2.1,0,0,1-2.125,2.092h-8.221v4.527h9.76a2.129,2.129,0,0,1,2.125,2.125,2.1,2.1,0,0,1-2.125,2.093h-12.1A2.352,2.352,0,0,1,210.711,310.259Z" transform="translate(-8.809 -39.841)" fill="#0b4495"/>
    <path id="Trazado_17" data-name="Trazado 17" d="M238.886,293.2a2.371,2.371,0,1,1,4.741,0v15.055H252.4a2.155,2.155,0,0,1,0,4.311H241.256a2.351,2.351,0,0,1-2.37-2.371Z" transform="translate(-16.357 -39.773)" fill="#0b4495"/>
    <path id="Trazado_18" data-name="Trazado 18" d="M277.533,293.281a2.351,2.351,0,0,1,2.37-2.371h.523a2.435,2.435,0,0,1,2.155,1.231l5.727,9.33,5.757-9.361a2.324,2.324,0,0,1,2.125-1.2h.524a2.352,2.352,0,0,1,2.371,2.371V310.4a2.356,2.356,0,1,1-4.711,0V299.654l-4.156,6.4a2.217,2.217,0,0,1-3.942,0l-4.095-6.311V310.46a2.313,2.313,0,0,1-2.339,2.31,2.287,2.287,0,0,1-2.309-2.31Z" transform="translate(-26.711 -39.796)" fill="#0b4495"/>
    <path id="Trazado_19" data-name="Trazado 19" d="M312.29,309.459l7.512-16.966a2.933,2.933,0,0,1,2.772-1.878h.277a2.892,2.892,0,0,1,2.74,1.878l7.512,16.966a2.3,2.3,0,0,1,.247.954,2.248,2.248,0,0,1-2.248,2.278,2.415,2.415,0,0,1-2.279-1.632l-1.447-3.387h-9.484l-1.508,3.542a2.33,2.33,0,0,1-2.186,1.477,2.183,2.183,0,0,1-2.187-2.217A2.51,2.51,0,0,1,312.29,309.459Zm13.332-5.973-2.987-7.113-2.986,7.113Z" transform="translate(-35.948 -39.717)" fill="#0b4495"/>
    <path id="Trazado_20" data-name="Trazado 20" d="M346.245,293.449a2.351,2.351,0,0,1,2.37-2.371H356.1a8.6,8.6,0,0,1,6.281,2.186,6.766,6.766,0,0,1,1.847,4.926v.062a6.579,6.579,0,0,1-4.311,6.558l3.294,4a2.759,2.759,0,0,1,.77,1.816,2.206,2.206,0,0,1-2.248,2.186,2.837,2.837,0,0,1-2.34-1.231l-4.619-5.85h-3.787v4.71a2.37,2.37,0,1,1-4.74,0Zm9.544,8.1c2.31,0,3.633-1.232,3.633-3.049v-.061c0-2.032-1.416-3.078-3.726-3.078h-4.711v6.188Z" transform="translate(-45.118 -39.841)" fill="#0b4495"/>
    <path id="Trazado_21" data-name="Trazado 21" d="M385.483,304.814v-.049a3.583,3.583,0,0,1,7.167,0v.049a3.583,3.583,0,0,1-7.167,0Z" transform="translate(-55.63 -42.554)" fill="#e61736"/>
    <g id="Grupo_1831" data-name="Grupo 1831" transform="translate(347.901 249.95)">
      <path id="Trazado_22" data-name="Trazado 22" d="M410.136,292.7a1.88,1.88,0,0,1,1.909-1.909h6.588c5.05,0,8.19,2.863,8.19,7.2v.061c0,4.835-3.879,7.36-8.621,7.36h-4.279v5.2a1.894,1.894,0,0,1-3.787,0Zm8.189,9.3c2.864,0,4.65-1.6,4.65-3.848v-.061c0-2.524-1.816-3.849-4.65-3.849h-4.4V302Z" transform="translate(-410.136 -289.715)" fill="#e61736"/>
      <path id="Trazado_23" data-name="Trazado 23" d="M437.637,291.169a1.834,1.834,0,0,1,1.848-1.849,1.86,1.86,0,0,1,1.878,1.849v7.019a5.892,5.892,0,0,1,5.079-2.833c3.664,0,5.789,2.464,5.789,6.219v8.684a1.814,1.814,0,0,1-1.847,1.847,1.841,1.841,0,0,1-1.879-1.847v-7.544c0-2.525-1.262-3.972-3.479-3.972-2.155,0-3.663,1.508-3.663,4.033v7.482a1.863,1.863,0,0,1-3.726,0Z" transform="translate(-417.503 -289.32)" fill="#e61736"/>
      <path id="Trazado_24" data-name="Trazado 24" d="M462.237,309.523v-.061c0-3.51,2.741-5.234,6.713-5.234a13.577,13.577,0,0,1,4.372.678v-.4c0-2.309-1.417-3.54-4.033-3.54a9.676,9.676,0,0,0-3.6.646,2.1,2.1,0,0,1-.585.093,1.551,1.551,0,0,1-1.57-1.54,1.624,1.624,0,0,1,1.016-1.477,13.92,13.92,0,0,1,5.235-.955,7.287,7.287,0,0,1,5.388,1.817,6.746,6.746,0,0,1,1.755,5.019v8.006a1.775,1.775,0,0,1-1.816,1.786,1.683,1.683,0,0,1-1.816-1.57v-.616a6.61,6.61,0,0,1-5.3,2.371C464.947,314.542,462.237,312.787,462.237,309.523Zm11.146-1.169v-1.108a10.322,10.322,0,0,0-3.694-.647c-2.4,0-3.818,1.015-3.818,2.709v.061c0,1.571,1.385,2.464,3.171,2.464C471.505,311.833,473.383,310.417,473.383,308.354Z" transform="translate(-424.094 -291.573)" fill="#e61736"/>
      <path id="Trazado_25" data-name="Trazado 25" d="M488.395,299.64a1.841,1.841,0,0,1,1.847-1.879,1.868,1.868,0,0,1,1.879,1.879V301.3c.861-2.032,2.463-3.573,4.095-3.573a1.729,1.729,0,0,1,1.847,1.848,1.748,1.748,0,0,1-1.477,1.786c-2.648.461-4.464,2.493-4.464,6.341v4.8a1.861,1.861,0,0,1-1.879,1.847,1.833,1.833,0,0,1-1.847-1.847Z" transform="translate(-431.101 -291.573)" fill="#e61736"/>
      <path id="Trazado_26" data-name="Trazado 26" d="M505.762,299.6a1.84,1.84,0,0,1,1.847-1.879,1.867,1.867,0,0,1,1.878,1.879v.77a5.825,5.825,0,0,1,4.956-2.8,5.161,5.161,0,0,1,4.866,2.864,6.54,6.54,0,0,1,5.48-2.864c3.54,0,5.7,2.248,5.7,6.219v8.684a1.814,1.814,0,0,1-1.847,1.847,1.841,1.841,0,0,1-1.878-1.847v-7.544c0-2.587-1.2-3.972-3.294-3.972-2.032,0-3.479,1.416-3.479,4.033v7.482a1.863,1.863,0,0,1-3.726,0v-7.574c0-2.525-1.231-3.941-3.294-3.941s-3.479,1.54-3.479,4.033v7.482a1.863,1.863,0,0,1-3.725,0Z" transform="translate(-435.754 -291.528)" fill="#e61736"/>
      <path id="Trazado_27" data-name="Trazado 27" d="M544.238,309.523v-.061c0-3.51,2.741-5.234,6.713-5.234a13.578,13.578,0,0,1,4.372.678v-.4c0-2.309-1.417-3.54-4.033-3.54a9.678,9.678,0,0,0-3.6.646,2.1,2.1,0,0,1-.586.093,1.55,1.55,0,0,1-1.57-1.54,1.623,1.623,0,0,1,1.015-1.477,13.92,13.92,0,0,1,5.235-.955,7.286,7.286,0,0,1,5.388,1.817,6.746,6.746,0,0,1,1.755,5.019v8.006a1.775,1.775,0,0,1-1.816,1.786,1.684,1.684,0,0,1-1.816-1.57v-.616a6.61,6.61,0,0,1-5.3,2.371C546.948,314.542,544.238,312.787,544.238,309.523Zm11.146-1.169v-1.108a10.321,10.321,0,0,0-3.694-.647c-2.4,0-3.818,1.015-3.818,2.709v.061c0,1.571,1.385,2.464,3.171,2.464C553.506,311.833,555.384,310.417,555.384,308.354Z" transform="translate(-446.061 -291.573)" fill="#e61736"/>
      <path id="Trazado_28" data-name="Trazado 28" d="M569.176,306.123v-.061a8.391,8.391,0,0,1,8.468-8.5,8.228,8.228,0,0,1,5.7,2.032,1.767,1.767,0,0,1,.585,1.294,1.7,1.7,0,0,1-1.724,1.693,1.9,1.9,0,0,1-1.109-.37,5.151,5.151,0,0,0-3.478-1.385A4.9,4.9,0,0,0,572.9,306v.062a4.919,4.919,0,0,0,4.865,5.2,5.423,5.423,0,0,0,3.633-1.447,1.571,1.571,0,0,1,2.617,1.232,1.452,1.452,0,0,1-.523,1.17,7.956,7.956,0,0,1-5.912,2.309A8.3,8.3,0,0,1,569.176,306.123Z" transform="translate(-452.742 -291.528)" fill="#e61736"/>
      <path id="Trazado_29" data-name="Trazado 29" d="M594.277,318.772a1.589,1.589,0,0,1-1.171-1.54,1.5,1.5,0,0,1,1.509-1.539,1.9,1.9,0,0,1,.677.123,4.219,4.219,0,0,0,1.293.215c1.109,0,1.694-.462,2.309-1.723l.124-.339-6.035-13.485a2.524,2.524,0,0,1-.216-.893,1.79,1.79,0,0,1,1.848-1.817,1.87,1.87,0,0,1,1.817,1.417L600.8,310l4.064-10.807a1.913,1.913,0,0,1,1.786-1.417,1.761,1.761,0,0,1,1.786,1.755,3.385,3.385,0,0,1-.153.894l-5.942,14.255c-1.387,3.325-2.864,4.557-5.481,4.557A6.574,6.574,0,0,1,594.277,318.772Z" transform="translate(-459.062 -291.585)" fill="#e61736"/>
    </g>
  </g>
</svg>
